<svg xmlns="http://www.w3.org/2000/svg" version="1.1" viewBox="1.4298100471496582 1.3107081651687622 423.37213134765625 431.97088623046875" width="426.00" height="435.00">
<g stroke-width="2.00" fill="none" stroke-linecap="butt">
<path stroke="#676e53" vector-effect="non-scaling-stroke" d="&#10;  M 256.24 231.25&#10;  L 256.43 230.55" data-c-stroke="676e53"/>
<path stroke="#452f76" vector-effect="non-scaling-stroke" d="&#10;  M 256.37 230.54&#10;  Q 256.09 230.84 256.08 231.25" data-c-stroke="6b6676"/>
<path stroke="#452f76" vector-effect="non-scaling-stroke" d="&#10;  M 255.40 238.04&#10;  L 255.40 239.48" data-c-stroke="6b6676"/>
<path stroke="#452f76" vector-effect="non-scaling-stroke" d="&#10;  M 73.30 6.40&#10;  L 71.90 11.51&#10;  A 0.11 0.11 0.0 0 0 71.98 11.64&#10;  L 72.02 11.65&#10;  A 2.45 1.13 -74.7 0 0 73.76 9.59&#10;  L 73.92 8.99&#10;  A 2.45 1.13 -74.7 0 0 73.48 6.33&#10;  L 73.44 6.32&#10;  A 0.11 0.11 0.0 0 0 73.30 6.40" data-c-stroke="6b6676"/>
</g>
<path fill="#2b525b" d="&#10;  M 63.7354 77.5478&#10;  A 39.09 38.55 107.9 0 1 39.0660 28.5014&#10;  A 39.09 38.55 107.9 0 1 87.7646 3.1522&#10;  A 39.09 38.55 107.9 0 1 112.4340 52.1986&#10;  A 39.09 38.55 107.9 0 1 63.7354 77.5478&#10;  Z&#10;  M 73.30 6.40&#10;  L 71.90 11.51&#10;  A 0.11 0.11 0.0 0 0 71.98 11.64&#10;  L 72.02 11.65&#10;  A 2.45 1.13 -74.7 0 0 73.76 9.59&#10;  L 73.92 8.99&#10;  A 2.45 1.13 -74.7 0 0 73.48 6.33&#10;  L 73.44 6.32&#10;  A 0.11 0.11 0.0 0 0 73.30 6.40&#10;  Z&#10;  M 99.8911 38.8360&#10;  A 24.46 23.95 -4.3 0 0 73.7043 16.7874&#10;  A 24.46 23.95 -4.3 0 0 51.1089 42.5040&#10;  A 24.46 23.95 -4.3 0 0 77.2957 64.5526&#10;  A 24.46 23.95 -4.3 0 0 99.8911 38.8360&#10;  Z" data-c-fill="2b525b"/>
<path fill="#a63b8d" d="&#10;  M 330.78 23.40&#10;  C 323.63 26.48 318.48 35.80 317.79 42.80&#10;  Q 317.28 47.87 317.74 63.42&#10;  Q 317.82 65.96 318.25 67.96&#10;  C 318.64 69.75 319.29 72.05 319.35 74.07&#10;  Q 319.46 78.03 319.27 80.11&#10;  A 1.47 1.47 0.0 0 1 317.81 81.44&#10;  L 300.22 81.44&#10;  A 0.49 0.49 0.0 0 1 299.73 80.96&#10;  Q 299.26 58.94 300.05 44.33&#10;  Q 300.45 36.78 301.58 32.77&#10;  C 303.19 27.08 306.32 22.08 309.88 17.35&#10;  Q 312.27 14.16 313.88 13.12&#10;  Q 316.91 11.17 320.94 8.65&#10;  Q 329.35 3.39 340.52 3.39&#10;  Q 351.26 3.39 358.44 8.09&#10;  Q 367.62 14.11 373.98 23.34&#10;  Q 376.26 26.64 377.15 30.16&#10;  Q 378.85 36.94 379.04 38.02&#10;  Q 379.68 41.64 379.81 46.05&#10;  Q 380.10 55.49 380.34 75.96&#10;  Q 380.34 76.47 379.83 76.47&#10;  C 374.96 76.52 369.17 77.07 365.24 75.88&#10;  C 361.54 74.76 361.50 69.84 361.90 66.37&#10;  Q 362.18 64.05 362.03 60.73&#10;  Q 361.69 53.32 361.73 45.39&#10;  Q 361.76 39.43 360.54 36.37&#10;  Q 358.48 31.16 354.12 26.87&#10;  C 347.73 20.58 338.88 19.92 330.78 23.40&#10;  Z" data-c-fill="a2894a"/>
<path fill="#cc3780" d="&#10;  M 236.19 69.79&#10;  Q 227.81 80.03 213.00 81.35&#10;  Q 211.49 81.48 205.06 81.01&#10;  Q 199.83 80.63 197.39 79.84&#10;  Q 189.17 77.19 184.12 72.39&#10;  Q 182.03 70.40 177.47 64.09&#10;  Q 174.04 59.33 173.03 54.96&#10;  Q 170.22 42.83 173.56 31.45&#10;  Q 174.46 28.36 177.24 24.53&#10;  Q 179.32 21.67 183.77 15.53&#10;  Q 184.72 14.23 189.09 11.76&#10;  Q 192.27 9.97 194.81 8.73&#10;  Q 207.54 2.50 220.98 8.41&#10;  Q 227.65 11.34 232.67 13.62&#10;  A 4.76 4.75 85.0 0 1 234.63 15.27&#10;  Q 237.98 20.14 240.49 23.94&#10;  Q 247.57 34.67 245.93 49.72&#10;  Q 245.18 56.60 242.71 60.66&#10;  Q 239.99 65.14 236.19 69.79&#10;  Z&#10;  M 231.9096 47.8832&#10;  A 23.16 22.73 8.6 0 0 212.4089 21.9456&#10;  A 23.16 22.73 8.6 0 0 186.1104 40.9568&#10;  A 23.16 22.73 8.6 0 0 205.6111 66.8944&#10;  A 23.16 22.73 8.6 0 0 231.9096 47.8832&#10;  Z" data-c-fill="aa7a91"/>
<path fill="#cc3780" d="&#10;  M 73.30 6.40&#10;  A 0.11 0.11 0.0 0 1 73.44 6.32&#10;  L 73.48 6.33&#10;  A 2.45 1.13 -74.7 0 1 73.92 8.99&#10;  L 73.76 9.59&#10;  A 2.45 1.13 -74.7 0 1 72.02 11.65&#10;  L 71.98 11.64&#10;  A 0.11 0.11 0.0 0 1 71.90 11.51&#10;  L 73.30 6.40&#10;  Z" data-c-fill="aa7a91"/>
<path fill="#a63b8d" d="&#10;  M 256.24 231.25&#10;  L 256.43 230.55&#10;  C 257.18 229.30 257.33 227.59 257.64 226.57&#10;  Q 259.93 219.12 262.57 211.78&#10;  Q 270.74 189.08 279.28 166.51&#10;  C 280.67 162.84 281.81 157.60 283.53 153.27&#10;  C 287.40 143.50 291.85 132.32 294.80 121.36&#10;  Q 297.17 112.58 299.48 107.95&#10;  C 303.02 100.86 307.34 93.30 313.84 89.32&#10;  Q 320.80 85.06 328.19 83.66&#10;  Q 336.46 82.08 343.39 82.48&#10;  Q 360.01 83.43 372.62 95.12&#10;  Q 375.24 97.55 376.76 100.52&#10;  Q 380.16 107.19 387.51 129.05&#10;  Q 389.53 135.07 395.72 153.43&#10;  Q 399.80 165.52 402.32 171.48&#10;  Q 405.36 178.68 407.17 184.94&#10;  C 410.54 196.58 413.88 204.46 419.59 219.17&#10;  Q 423.37 228.91 424.10 233.15&#10;  Q 425.43 240.87 424.24 248.06&#10;  Q 422.97 255.76 416.65 261.48&#10;  Q 413.56 264.28 408.14 267.88&#10;  Q 403.58 270.92 399.43 271.91&#10;  Q 398.93 272.03 399.21 272.47&#10;  C 402.28 277.20 405.01 280.95 407.68 286.32&#10;  Q 415.05 301.17 416.75 304.69&#10;  Q 421.08 313.65 415.46 321.90&#10;  Q 414.81 322.85 413.08 323.81&#10;  Q 411.97 324.43 410.21 324.69&#10;  C 407.88 325.03 406.04 325.35 403.91 325.37&#10;  Q 393.42 325.50 381.52 325.35&#10;  A 0.87 0.87 0.0 0 0 380.64 326.22&#10;  Q 380.74 365.46 380.66 398.54&#10;  Q 380.64 404.62 379.95 407.41&#10;  C 378.47 413.31 374.70 417.66 370.44 422.28&#10;  Q 366.79 426.25 363.75 427.83&#10;  Q 357.93 430.84 352.66 431.89&#10;  Q 342.53 433.89 330.82 432.23&#10;  Q 327.47 431.76 323.50 429.91&#10;  Q 318.69 427.67 312.16 423.68&#10;  C 309.79 422.22 307.87 420.36 306.60 417.59&#10;  Q 305.28 414.72 302.96 408.51&#10;  Q 301.37 404.24 301.38 399.77&#10;  Q 301.44 362.65 301.37 327.55&#10;  Q 301.37 325.63 299.44 325.62&#10;  Q 291.37 325.61 273.70 325.62&#10;  Q 272.58 325.63 272.52 325.61&#10;  Q 271.36 325.26 271.30 325.23&#10;  Q 263.85 321.29 260.83 315.19&#10;  C 259.70 312.91 260.38 310.40 261.35 308.05&#10;  Q 267.14 294.09 269.49 287.77&#10;  Q 270.94 283.85 273.30 279.78&#10;  Q 274.30 278.05 277.46 271.87&#10;  A 0.81 0.80 27.9 0 0 277.12 270.79&#10;  Q 269.51 266.72 263.81 260.45&#10;  Q 257.87 253.90 256.64 246.05&#10;  Q 255.73 240.19 256.24 231.25&#10;  Z&#10;  M 305.53 262.19&#10;  C 303.04 264.65 301.78 265.80 300.16 268.84&#10;  Q 289.08 289.74 281.75 306.50&#10;  A 0.74 0.74 0.0 0 0 282.43 307.54&#10;  Q 301.57 307.53 316.26 308.05&#10;  Q 326.46 308.42 336.25 308.30&#10;  Q 337.11 308.29 395.66 308.30&#10;  Q 396.72 308.30 396.26 307.34&#10;  C 393.78 302.17 392.10 297.26 389.12 291.59&#10;  Q 380.46 275.12 379.13 272.82&#10;  Q 376.51 268.25 373.18 264.61&#10;  A 2.02 2.02 0.0 0 1 372.93 262.22&#10;  Q 376.49 256.23 384.01 254.72&#10;  C 387.36 254.04 391.86 255.15 395.56 253.79&#10;  C 401.84 251.49 406.88 245.17 406.34 238.30&#10;  Q 406.01 234.04 404.32 229.28&#10;  Q 403.86 227.96 395.28 206.35&#10;  Q 394.19 203.61 392.33 197.77&#10;  C 389.66 189.40 384.92 177.36 383.29 172.94&#10;  Q 380.60 165.64 377.79 156.61&#10;  Q 375.40 148.93 371.41 138.54&#10;  C 368.38 130.65 366.79 125.39 364.44 117.47&#10;  Q 362.07 109.48 354.98 104.87&#10;  Q 349.71 101.44 344.89 100.70&#10;  Q 340.37 100.00 334.17 100.58&#10;  Q 326.41 101.30 321.01 106.97&#10;  Q 317.48 110.67 314.59 119.03&#10;  Q 310.86 129.84 308.37 138.18&#10;  Q 306.76 143.58 301.79 155.79&#10;  Q 296.81 168.02 292.40 184.58&#10;  Q 291.98 186.16 289.92 190.46&#10;  C 287.25 196.04 285.17 203.56 283.54 207.74&#10;  C 282.14 211.34 281.40 214.91 279.98 218.15&#10;  C 278.29 222.00 276.88 227.82 275.59 231.63&#10;  Q 273.21 238.60 276.71 245.91&#10;  Q 279.03 250.76 283.46 251.94&#10;  Q 290.54 253.83 296.46 256.87&#10;  Q 304.20 260.85 305.46 261.60&#10;  A 0.38 0.38 0.0 0 1 305.53 262.19&#10;  Z&#10;  M 359.32 325.87&#10;  L 321.60 325.93&#10;  A 2.36 2.36 0.0 0 0 319.25 328.30&#10;  L 319.37 397.91&#10;  A 19.51 16.73 -0.1 0 0 338.91 414.60&#10;  L 342.33 414.60&#10;  A 19.51 16.73 -0.1 0 0 361.81 397.83&#10;  L 361.69 328.22&#10;  A 2.36 2.36 0.0 0 0 359.32 325.87&#10;  Z" data-c-fill="a2894a"/>
<path fill="#cc3780" d="&#10;  M 256.37 230.54&#10;  Q 256.09 230.84 256.08 231.25&#10;  L 255.40 238.04&#10;  L 255.40 239.48&#10;  Q 254.59 248.86 253.39 258.22&#10;  C 252.39 266.13 252.44 270.39 247.19 274.68&#10;  Q 243.41 277.77 238.42 279.98&#10;  A 1.44 1.44 0.0 0 0 237.58 281.53&#10;  Q 239.26 291.83 241.82 301.51&#10;  Q 244.22 310.62 245.20 317.51&#10;  Q 249.59 348.24 250.15 377.89&#10;  Q 250.28 384.71 249.57 390.84&#10;  Q 248.61 399.23 247.44 403.64&#10;  Q 246.60 406.84 243.55 413.12&#10;  C 239.27 421.92 232.03 428.08 222.92 430.91&#10;  Q 200.59 437.84 181.92 424.52&#10;  C 175.02 419.59 170.43 409.07 169.00 401.28&#10;  Q 167.72 394.27 167.49 386.52&#10;  Q 166.86 365.40 168.82 339.46&#10;  Q 169.65 328.42 171.12 319.58&#10;  Q 174.17 301.27 178.03 285.81&#10;  Q 178.28 284.80 178.55 282.07&#10;  Q 178.72 280.41 177.05 279.74&#10;  C 172.03 277.72 165.65 275.38 163.65 270.62&#10;  Q 161.75 266.11 161.24 261.26&#10;  Q 158.57 235.60 157.30 209.85&#10;  Q 156.90 201.78 156.77 189.86&#10;  Q 156.28 143.66 156.67 135.00&#10;  Q 156.77 132.66 157.63 124.93&#10;  Q 158.11 120.52 161.97 112.55&#10;  Q 162.91 110.61 165.39 107.23&#10;  C 167.25 104.70 168.66 102.00 170.36 100.38&#10;  Q 178.31 92.81 184.39 89.88&#10;  Q 190.69 86.84 197.56 84.56&#10;  C 201.46 83.27 203.97 83.46 209.16 83.43&#10;  C 213.58 83.41 217.51 83.39 221.47 84.50&#10;  Q 230.64 87.05 240.46 93.09&#10;  Q 245.64 96.28 247.36 98.47&#10;  Q 253.78 106.66 256.03 114.51&#10;  Q 256.68 116.80 257.23 122.47&#10;  Q 257.60 126.27 257.62 130.55&#10;  C 257.68 144.87 257.57 159.62 257.91 173.50&#10;  Q 258.37 192.25 258.34 211.00&#10;  Q 258.32 221.24 257.36 225.18&#10;  Q 256.44 228.96 256.37 230.54&#10;  Z&#10;  M 224.72 269.19&#10;  Q 227.35 267.17 227.92 266.90&#10;  Q 232.26 264.81 235.48 263.14&#10;  A 2.01 1.98 -8.1 0 0 236.52 261.77&#10;  Q 241.19 239.35 242.28 217.76&#10;  Q 242.64 210.69 242.56 197.77&#10;  Q 242.37 167.57 242.30 137.29&#10;  Q 242.29 132.14 241.51 125.55&#10;  C 240.68 118.51 237.58 109.63 231.39 105.88&#10;  Q 216.30 96.75 199.85 100.77&#10;  Q 196.49 101.60 193.40 103.17&#10;  C 189.03 105.39 184.09 108.23 181.26 112.01&#10;  Q 175.33 119.93 173.70 130.28&#10;  Q 172.24 139.48 172.60 155.30&#10;  Q 173.26 183.82 173.43 201.75&#10;  Q 173.53 212.25 174.43 221.71&#10;  C 175.73 235.29 176.79 244.71 177.50 254.60&#10;  Q 177.78 258.64 178.40 262.79&#10;  Q 178.47 263.28 178.95 263.41&#10;  C 182.97 264.48 185.43 264.95 188.66 266.61&#10;  Q 190.67 267.64 192.21 269.84&#10;  Q 194.79 273.53 194.96 274.06&#10;  Q 195.98 277.21 195.30 279.81&#10;  Q 181.39 332.76 182.71 384.31&#10;  Q 182.91 392.08 186.19 402.60&#10;  C 187.40 406.49 189.76 408.47 192.92 410.79&#10;  C 198.24 414.70 206.41 417.92 212.88 415.88&#10;  Q 220.83 413.37 227.64 406.89&#10;  C 230.74 403.93 232.34 395.15 232.65 391.79&#10;  Q 233.72 380.23 233.76 371.49&#10;  Q 233.89 341.43 228.00 312.59&#10;  Q 224.53 295.59 224.37 294.77&#10;  C 223.01 287.96 217.80 274.53 224.72 269.19&#10;  Z" data-c-fill="aa7a91"/>
<path fill="#2b525b" d="&#10;  M 36.74 103.96&#10;  C 33.14 105.42 30.50 107.03 28.58 110.39&#10;  Q 24.59 117.38 23.96 118.42&#10;  Q 20.90 123.46 19.86 126.68&#10;  Q 17.43 134.18 17.43 142.51&#10;  Q 17.53 243.59 17.66 268.03&#10;  Q 17.69 272.86 13.55 273.16&#10;  Q 8.15 273.54 2.13 273.34&#10;  Q 1.46 273.32 1.46 272.65&#10;  Q 1.56 206.94 1.43 143.49&#10;  Q 1.39 124.02 9.77 108.75&#10;  Q 11.46 105.67 13.85 103.24&#10;  Q 16.30 100.76 18.10 97.70&#10;  Q 18.35 97.27 19.16 96.60&#10;  Q 20.06 95.85 20.35 95.64&#10;  Q 30.13 88.52 42.53 85.78&#10;  Q 49.57 84.22 62.08 84.34&#10;  Q 76.38 84.48 94.27 84.34&#10;  C 99.00 84.30 103.94 84.84 108.81 86.52&#10;  C 115.17 88.71 121.97 90.80 126.81 94.59&#10;  Q 133.42 99.76 137.61 104.23&#10;  Q 139.80 106.57 141.95 111.25&#10;  C 145.01 117.92 147.64 125.10 147.58 132.50&#10;  Q 147.46 148.33 148.31 173.75&#10;  Q 148.53 180.66 148.40 204.75&#10;  Q 148.35 214.52 147.97 224.74&#10;  Q 147.13 247.25 147.41 271.34&#10;  Q 147.47 276.41 143.65 277.99&#10;  Q 138.81 280.00 134.60 277.63&#10;  Q 131.15 275.68 130.56 272.43&#10;  Q 130.37 271.37 130.35 266.17&#10;  Q 130.27 249.62 130.85 233.75&#10;  Q 131.31 221.15 131.37 213.76&#10;  Q 131.82 150.18 131.66 135.50&#10;  Q 131.59 128.87 127.97 120.82&#10;  Q 124.13 112.27 117.78 107.86&#10;  Q 109.94 102.41 101.84 100.97&#10;  Q 97.01 100.11 87.80 99.72&#10;  Q 82.18 99.49 69.53 99.61&#10;  Q 54.58 99.75 52.97 99.91&#10;  Q 44.74 100.72 36.74 103.96&#10;  Z" data-c-fill="2b525b"/>
<path fill="#2b525b" d="&#10;  M 256.43 230.55&#10;  L 256.24 231.25&#10;  Q 256.16 231.25 256.08 231.25&#10;  Q 256.09 230.84 256.37 230.54&#10;  Q 256.40 230.55 256.43 230.55&#10;  Z" data-c-fill="2b525b"/>
<path fill="#2b525b" d="&#10;  M 42.27 242.53&#10;  C 46.80 238.76 48.65 237.47 53.91 236.09&#10;  Q 57.33 235.19 59.72 234.99&#10;  Q 75.38 233.68 87.85 234.69&#10;  Q 102.05 235.84 111.71 246.52&#10;  Q 114.94 250.10 116.48 254.07&#10;  Q 117.63 257.04 117.59 262.67&#10;  C 117.44 282.88 116.42 303.73 115.89 321.51&#10;  Q 115.60 331.50 115.11 341.50&#10;  Q 113.78 368.96 113.22 397.63&#10;  Q 113.17 400.12 112.84 402.91&#10;  C 112.62 404.87 112.44 407.85 111.69 409.89&#10;  Q 110.21 413.90 109.14 417.02&#10;  Q 107.86 420.77 105.74 422.75&#10;  C 102.55 425.71 97.48 427.68 93.17 429.13&#10;  Q 89.82 430.27 86.07 430.67&#10;  Q 74.49 431.92 63.26 431.07&#10;  C 54.81 430.42 46.01 426.21 41.33 419.23&#10;  Q 38.19 414.55 37.13 410.47&#10;  Q 36.40 407.61 36.40 401.00&#10;  Q 36.40 387.71 36.40 387.18&#10;  C 36.36 376.02 35.65 364.80 35.39 352.99&#10;  Q 35.14 341.46 34.75 333.01&#10;  Q 32.75 289.02 32.69 278.82&#10;  Q 32.62 269.18 32.64 259.55&#10;  Q 32.65 250.54 39.04 245.23&#10;  Q 42.20 242.59 42.27 242.53&#10;  Z&#10;  M 102.21 267.42&#10;  C 102.94 262.33 101.41 257.85 96.89 255.17&#10;  Q 92.57 252.61 89.72 252.58&#10;  Q 80.20 252.47 77.53 252.22&#10;  Q 67.50 251.29 62.00 251.70&#10;  Q 52.62 252.39 49.87 259.44&#10;  Q 48.79 262.23 49.03 272.09&#10;  Q 49.40 287.15 49.44 293.64&#10;  Q 49.49 301.74 50.05 313.63&#10;  C 50.65 326.36 50.41 342.35 51.12 355.24&#10;  Q 52.47 380.05 52.57 404.98&#10;  Q 52.58 407.71 54.21 409.51&#10;  Q 58.80 414.60 65.51 414.53&#10;  Q 80.62 414.38 83.75 414.33&#10;  Q 89.82 414.24 92.83 412.11&#10;  C 96.23 409.71 97.59 406.48 97.65 402.29&#10;  Q 98.19 365.41 99.80 331.49&#10;  Q 100.29 321.14 100.56 311.51&#10;  Q 101.51 277.79 101.84 271.60&#10;  Q 101.98 269.00 102.21 267.42&#10;  Z" data-c-fill="2b525b"/>
<path fill="#2b525b" d="&#10;  M 255.40 238.04&#10;  L 255.40 239.48&#10;  L 255.40 238.04&#10;  Z" data-c-fill="2b525b"/>
</svg>